<?xml version="1.0" standalone="no"?>
<!DOCTYPE svg PUBLIC "-//W3C//DTD SVG 20010904//EN"
 "http://www.w3.org/TR/2001/REC-SVG-20010904/DTD/svg10.dtd">
<svg version="1.0" xmlns="http://www.w3.org/2000/svg"
 width="447.000000pt" height="447.000000pt" viewBox="0 0 447.000000 447.000000"
 preserveAspectRatio="xMidYMid meet">
<metadata>
Created by potrace 1.14, written by Peter Selinger 2001-2017
</metadata>
<g transform="translate(0.000000,447.000000) scale(0.100000,-0.100000)"
fill="#000000" stroke="none">
<path d="M2106 4159 c-3 -13 -11 -53 -17 -89 -26 -152 -129 -417 -183 -469
-64 -62 -165 -48 -306 44 -72 46 -248 200 -282 245 -11 16 -25 27 -30 24 -4
-3 -6 -10 -3 -15 4 -5 6 -71 6 -146 0 -135 -20 -258 -52 -319 -50 -96 -239
-63 -464 82 -30 19 -55 32 -55 28 0 -4 17 -30 38 -58 22 -28 61 -87 89 -131
193 -309 171 -469 -72 -521 -74 -16 -262 -18 -356 -3 -39 6 -73 9 -75 6 -3 -3
20 -20 51 -38 73 -44 200 -133 260 -184 57 -48 134 -145 144 -183 26 -93 -89
-189 -329 -273 l-94 -33 54 -13 c91 -23 252 -74 306 -98 60 -27 80 -63 70
-126 -14 -86 -116 -237 -263 -390 l-86 -89 134 69 c142 73 246 118 369 157 88
28 113 30 134 8 53 -52 -25 -245 -232 -577 -30 -48 -53 -89 -51 -91 2 -2 26 7
52 19 70 34 267 113 325 130 66 20 96 9 112 -41 22 -65 -7 -228 -74 -422 -14
-39 -23 -72 -21 -72 3 0 42 30 87 67 180 145 380 254 476 260 44 3 64 0 89
-16 69 -43 121 -147 152 -299 l16 -82 125 125 c141 142 179 164 247 146 86
-23 166 -106 265 -275 l53 -90 7 44 c3 25 16 117 28 205 13 94 29 172 39 190
21 39 93 75 147 75 130 0 361 -87 602 -228 l44 -25 -31 61 c-17 34 -58 142
-92 242 -81 241 -82 298 -7 352 30 21 43 23 138 22 73 -1 127 -8 175 -22 l70
-21 -117 110 c-153 144 -183 193 -140 231 27 25 111 49 190 55 39 3 72 9 72
12 0 4 -40 47 -90 96 -98 97 -105 115 -71 171 40 65 229 175 444 259 53 21 94
42 90 46 -11 10 -244 103 -368 146 -162 56 -175 67 -175 141 0 80 72 194 219
346 67 69 80 87 61 83 -108 -25 -255 -40 -406 -41 -189 -1 -206 4 -217 62 -17
91 74 302 224 516 27 38 46 73 43 77 -11 18 -114 -15 -298 -93 -204 -87 -280
-89 -350 -6 -61 71 -89 190 -88 375 0 57 -4 101 -8 98 -4 -3 -62 -81 -129
-174 -66 -93 -132 -179 -147 -190 -31 -25 -92 -28 -133 -7 -86 45 -195 217
-291 461 -18 44 -33 82 -35 84 -2 2 -6 -7 -9 -20z"/>
</g>
</svg>
