<?xml version="1.0" standalone="no"?>
<!DOCTYPE svg PUBLIC "-//W3C//DTD SVG 20010904//EN"
 "http://www.w3.org/TR/2001/REC-SVG-20010904/DTD/svg10.dtd">
<svg version="1.0" xmlns="http://www.w3.org/2000/svg"
 width="580.000000pt" height="580.000000pt" viewBox="0 0 580.000000 580.000000"
 preserveAspectRatio="xMidYMid meet">
<metadata>
Created by potrace 1.11, written by Peter Selinger 2001-2013
</metadata>
<g transform="translate(0.000000,580.000000) scale(0.100000,-0.100000)"
fill="#000000" stroke="none">
<path d="M1519 5630 c-114 -29 -195 -77 -284 -165 -132 -132 -186 -267 -181
-455 4 -123 26 -204 83 -297 69 -112 147 -185 258 -241 117 -58 236 -77 370
-58 162 23 313 116 412 254 108 150 138 310 98 517 -9 47 -80 185 -122 235
-154 186 -404 269 -634 210z"/>
<path d="M2548 5587 c-32 -9 -77 -48 -79 -70 -1 -7 -2 -228 -3 -491 -2 -470
-2 -480 19 -510 11 -17 31 -36 44 -42 16 -8 160 -12 494 -12 511 -1 518 0 554
54 17 26 18 60 19 499 0 258 -3 483 -7 498 -11 39 -57 77 -94 78 -175 5 -923
2 -947 -4z"/>
<path d="M3910 5589 c-40 -8 -67 -33 -79 -73 -6 -19 -9 -218 -8 -506 2 -520 0
-505 62 -534 43 -21 952 -22 1001 -1 70 29 68 13 68 555 l0 487 -22 31 c-16
21 -34 33 -60 38 -46 9 -920 11 -962 3z"/>
<path d="M1193 4232 c-29 -4 -79 -54 -85 -84 -2 -13 -3 -234 -3 -493 1 -503 1
-499 52 -533 25 -16 68 -17 508 -18 508 -1 507 -2 550 46 19 21 20 37 21 504
2 521 1 528 -52 563 -25 16 -61 18 -498 18 -259 0 -481 -1 -493 -3z"/>
<path d="M2537 4225 c-16 -5 -40 -23 -51 -38 -21 -28 -21 -37 -21 -508 -1
-516 0 -522 51 -556 26 -17 61 -18 511 -19 454 -1 485 0 514 18 55 34 56 40
55 558 -1 435 -2 478 -18 503 -10 14 -28 32 -40 39 -29 16 -954 19 -1001 3z"/>
<path d="M1161 2859 c-56 -34 -55 -25 -56 -543 0 -518 0 -517 54 -553 24 -16
66 -17 512 -17 453 -1 487 0 513 17 53 35 53 40 52 563 l-1 484 -33 32 -32 33
-490 1 c-455 1 -492 0 -519 -17z"/>
<path d="M2532 2864 c-17 -7 -39 -25 -49 -40 -17 -26 -18 -60 -18 -514 l0
-485 22 -32 c13 -17 35 -35 50 -40 42 -13 962 -9 995 5 15 6 35 23 45 39 17
25 18 62 19 505 0 515 0 521 -52 555 -26 17 -61 18 -505 19 -365 1 -484 -2
-507 -12z"/>
<path d="M3881 2859 c-59 -36 -59 -29 -58 -552 0 -472 0 -478 21 -510 12 -18
35 -37 52 -42 19 -6 214 -10 505 -10 519 1 507 0 539 61 19 34 22 961 3 1005
-6 15 -24 36 -39 46 -26 17 -61 18 -511 19 -449 1 -485 0 -512 -17z"/>
<path d="M1152 1494 c-17 -14 -35 -39 -40 -57 -4 -18 -8 -239 -7 -492 1 -493
1 -502 52 -539 24 -17 52 -19 512 -19 451 0 490 2 515 18 54 36 54 31 52 557
l-1 488 -33 32 -32 33 -493 2 -493 2 -32 -25z"/>
<path d="M2530 1507 c-12 -7 -33 -25 -44 -40 -21 -28 -21 -37 -21 -511 0 -529
-1 -522 59 -553 25 -13 97 -15 502 -15 508 -1 517 0 551 51 16 24 18 63 19
506 1 515 1 512 -51 553 -24 19 -42 20 -508 20 -354 1 -489 -2 -507 -11z"/>
</g>
</svg>
